<mxfile host="app.diagrams.net" agent="Mozilla/5.0 (Macintosh; Intel Mac OS X 10_15_7) AppleWebKit/537.36 (KHTML, like Gecko) Chrome/131.0.0.0 Safari/537.36" version="25.0.3">
  <diagram name="Page-1" id="GxO4DzfJPCLEWfdv5AIp">
    <mxGraphModel dx="1434" dy="725" grid="1" gridSize="10" guides="1" tooltips="1" connect="1" arrows="1" fold="1" page="1" pageScale="1" pageWidth="827" pageHeight="1169" math="0" shadow="0">
      <root>
        <mxCell id="0" />
        <mxCell id="1" parent="0" />
        <mxCell id="nZfUMRDImMn_VAjpD-_a-1" value="AWS" style="points=[[0,0],[0.25,0],[0.5,0],[0.75,0],[1,0],[1,0.25],[1,0.5],[1,0.75],[1,1],[0.75,1],[0.5,1],[0.25,1],[0,1],[0,0.75],[0,0.5],[0,0.25]];outlineConnect=0;gradientColor=none;html=1;whiteSpace=wrap;fontSize=12;fontStyle=0;container=1;pointerEvents=0;collapsible=0;recursiveResize=0;shape=mxgraph.aws4.group;grIcon=mxgraph.aws4.group_region;strokeColor=#00A4A6;fillColor=none;verticalAlign=top;align=left;spacingLeft=30;fontColor=#147EBA;dashed=1;" vertex="1" parent="1">
          <mxGeometry x="330" y="220" width="440" height="240" as="geometry" />
        </mxCell>
        <mxCell id="nZfUMRDImMn_VAjpD-_a-8" style="edgeStyle=orthogonalEdgeStyle;rounded=0;orthogonalLoop=1;jettySize=auto;html=1;exitX=0.65;exitY=0.5;exitDx=0;exitDy=0;exitPerimeter=0;" edge="1" parent="nZfUMRDImMn_VAjpD-_a-1" source="nZfUMRDImMn_VAjpD-_a-2" target="nZfUMRDImMn_VAjpD-_a-5">
          <mxGeometry relative="1" as="geometry" />
        </mxCell>
        <mxCell id="nZfUMRDImMn_VAjpD-_a-2" value="Glow Level&lt;br&gt;API Gateway&lt;div&gt;&lt;br&gt;&lt;/div&gt;&lt;div&gt;/save_level&lt;br&gt;/get_by_user_id&lt;/div&gt;&lt;div&gt;/get_by_level&lt;/div&gt;" style="outlineConnect=0;dashed=0;verticalLabelPosition=bottom;verticalAlign=top;align=center;html=1;shape=mxgraph.aws3.api_gateway;fillColor=#D9A741;gradientColor=none;" vertex="1" parent="nZfUMRDImMn_VAjpD-_a-1">
          <mxGeometry x="30" y="90" width="76.5" height="93" as="geometry" />
        </mxCell>
        <mxCell id="nZfUMRDImMn_VAjpD-_a-9" style="edgeStyle=orthogonalEdgeStyle;rounded=0;orthogonalLoop=1;jettySize=auto;html=1;exitX=1;exitY=0.5;exitDx=0;exitDy=0;exitPerimeter=0;" edge="1" parent="nZfUMRDImMn_VAjpD-_a-1" source="nZfUMRDImMn_VAjpD-_a-5" target="nZfUMRDImMn_VAjpD-_a-6">
          <mxGeometry relative="1" as="geometry" />
        </mxCell>
        <mxCell id="nZfUMRDImMn_VAjpD-_a-5" value="" style="outlineConnect=0;dashed=0;verticalLabelPosition=bottom;verticalAlign=top;align=center;html=1;shape=mxgraph.aws3.lambda_function;fillColor=#F58534;gradientColor=none;" vertex="1" parent="nZfUMRDImMn_VAjpD-_a-1">
          <mxGeometry x="185.5" y="100.5" width="69" height="72" as="geometry" />
        </mxCell>
        <mxCell id="nZfUMRDImMn_VAjpD-_a-6" value="Tables:&lt;div&gt;&lt;br&gt;&lt;/div&gt;&lt;div&gt;level_data&lt;/div&gt;" style="outlineConnect=0;dashed=0;verticalLabelPosition=bottom;verticalAlign=top;align=center;html=1;shape=mxgraph.aws3.dynamo_db;fillColor=#2E73B8;gradientColor=none;" vertex="1" parent="nZfUMRDImMn_VAjpD-_a-1">
          <mxGeometry x="330" y="96" width="72" height="81" as="geometry" />
        </mxCell>
        <mxCell id="nZfUMRDImMn_VAjpD-_a-15" value="" style="edgeStyle=orthogonalEdgeStyle;rounded=0;orthogonalLoop=1;jettySize=auto;html=1;" edge="1" parent="1" source="nZfUMRDImMn_VAjpD-_a-7" target="nZfUMRDImMn_VAjpD-_a-2">
          <mxGeometry relative="1" as="geometry">
            <mxPoint x="201.5" y="359" as="targetPoint" />
          </mxGeometry>
        </mxCell>
        <mxCell id="nZfUMRDImMn_VAjpD-_a-7" value="Game Client" style="sketch=0;outlineConnect=0;fontColor=#232F3E;gradientColor=none;fillColor=#232F3D;strokeColor=none;dashed=0;verticalLabelPosition=bottom;verticalAlign=top;align=center;html=1;fontSize=12;fontStyle=0;aspect=fixed;pointerEvents=1;shape=mxgraph.aws4.mobile_client;" vertex="1" parent="1">
          <mxGeometry x="110" y="317.5" width="41" height="78" as="geometry" />
        </mxCell>
      </root>
    </mxGraphModel>
  </diagram>
</mxfile>
